<?xml version="1.0" encoding="utf-8"?>
<svg version="1.1" xmlns:xlink="http://www.w3.org/1999/xlink" width="1392px" height="549px" xmlns="http://www.w3.org/2000/svg">
  <g transform="matrix(1 0 0 1 -243 -395 )">
    <path d="M 243 395  L 1635 395  L 1635 944  L 243 944  L 243 395  " fill-rule="nonzero" fill="#cccccc" stroke="none" />
    <path d="M 281 433  L 1597 433  L 1597 906  L 281 906  L 281 433  " fill-rule="nonzero" fill="#ffffff" stroke="none" />
    <path d="M 1008.0150000000001 559.7  C 984.9570000000001 559.7  966.84 541.5830000000001  966.84 518.5250000000001  C 966.84 495.46700000000004  984.9570000000001 477.35  1008.0150000000001 477.35  C 1031.073 477.35  1049.19 495.46700000000004  1049.19 518.5250000000001  C 1049.19 541.5830000000001  1031.073 559.7  1008.0150000000001 559.7  " fill-rule="nonzero" fill="#cccccc" stroke="none" />
    <path d="M 295 893  L 295 647.7  L 617.25 536.2  L 1068.4 787.4594827586207  L 1326.2 603.0999999999999  L 1584 787.4594827586207  L 1584 893  L 295 893  " fill-rule="nonzero" fill="#169bd5" stroke="none" />
  </g>
</svg>