<?xml version="1.0" encoding="utf-8"?>
<svg version="1.1" xmlns:xlink="http://www.w3.org/1999/xlink" width="455px" height="264px" xmlns="http://www.w3.org/2000/svg">
  <g transform="matrix(1 0 0 1 -82 -362 )">
    <path d="M 82 362  L 537 362  L 537 626  L 82 626  L 82 362  " fill-rule="nonzero" fill="#cccccc" stroke="none" />
    <path d="M 100 380  L 519 380  L 519 608  L 100 608  L 100 380  " fill-rule="nonzero" fill="#ffffff" stroke="none" />
    <path d="M 338.40000000000003 441.20000000000005  C 327.312 441.20000000000005  318.6 432.48800000000006  318.6 421.40000000000003  C 318.6 410.312  327.312 401.6  338.40000000000003 401.6  C 349.48800000000006 401.6  358.20000000000005 410.312  358.20000000000005 421.40000000000003  C 358.20000000000005 432.48800000000006  349.48800000000006 441.20000000000005  338.40000000000003 441.20000000000005  " fill-rule="nonzero" fill="#cccccc" stroke="none" />
    <path d="M 107 602  L 107 483.75  L 208.5 430  L 350.6 527.1516483516483  L 431.8 462.25  L 513 527.1516483516483  L 513 602  L 107 602  " fill-rule="nonzero" fill="#169bd5" stroke="none" />
  </g>
</svg>